<mxfile host="Electron" modified="2024-01-09T20:29:05.824Z" agent="Mozilla/5.0 (Macintosh; Intel Mac OS X 10_15_7) AppleWebKit/537.36 (KHTML, like Gecko) draw.io/22.1.2 Chrome/114.0.5735.289 Electron/25.9.4 Safari/537.36" etag="YrSXr8VYCDdVoRzuaoyQ" version="22.1.2" type="device">
  <diagram name="Page-1" id="e7e014a7-5840-1c2e-5031-d8a46d1fe8dd">
    <mxGraphModel dx="737" dy="614" grid="1" gridSize="10" guides="1" tooltips="1" connect="1" arrows="1" fold="1" page="1" pageScale="1" pageWidth="1169" pageHeight="826" background="none" math="0" shadow="0">
      <root>
        <mxCell id="0" />
        <mxCell id="1" parent="0" />
        <mxCell id="2" value="Traffic Control System" style="swimlane;whiteSpace=wrap" parent="1" vertex="1">
          <mxGeometry x="164.5" y="130" width="280" height="632" as="geometry" />
        </mxCell>
        <mxCell id="CP8weXbP0PIr7haLrjP9-13" style="edgeStyle=orthogonalEdgeStyle;rounded=0;orthogonalLoop=1;jettySize=auto;html=1;entryX=0.5;entryY=0;entryDx=0;entryDy=0;" parent="2" source="5" target="CP8weXbP0PIr7haLrjP9-12" edge="1">
          <mxGeometry relative="1" as="geometry" />
        </mxCell>
        <mxCell id="5" value="" style="ellipse;shape=startState;fillColor=#000000;strokeColor=#ff0000;" parent="2" vertex="1">
          <mxGeometry x="100" y="40" width="30" height="30" as="geometry" />
        </mxCell>
        <mxCell id="7" value="Data collection" style="rounded=1;" parent="2" vertex="1">
          <mxGeometry x="180" y="112" width="110" height="50" as="geometry" />
        </mxCell>
        <mxCell id="NZHaks9mhVxnJWasvqss-52" value="" style="edgeStyle=orthogonalEdgeStyle;rounded=0;orthogonalLoop=1;jettySize=auto;html=1;" parent="2" source="8" target="10" edge="1">
          <mxGeometry relative="1" as="geometry" />
        </mxCell>
        <mxCell id="8" value="TrafficÂ  Analysis" style="rounded=1;" parent="2" vertex="1">
          <mxGeometry x="60" y="192" width="110" height="50" as="geometry" />
        </mxCell>
        <mxCell id="NZHaks9mhVxnJWasvqss-44" style="edgeStyle=orthogonalEdgeStyle;rounded=0;orthogonalLoop=1;jettySize=auto;html=1;entryX=0.5;entryY=0;entryDx=0;entryDy=0;" parent="2" source="10" target="NZHaks9mhVxnJWasvqss-41" edge="1">
          <mxGeometry relative="1" as="geometry" />
        </mxCell>
        <mxCell id="10" value="Optimization Algorithm" style="rounded=1;" parent="2" vertex="1">
          <mxGeometry x="50" y="285" width="130" height="50" as="geometry" />
        </mxCell>
        <mxCell id="CP8weXbP0PIr7haLrjP9-11" style="edgeStyle=orthogonalEdgeStyle;rounded=0;orthogonalLoop=1;jettySize=auto;html=1;" parent="2" source="NZHaks9mhVxnJWasvqss-41" edge="1">
          <mxGeometry relative="1" as="geometry">
            <mxPoint x="54.5" y="132" as="targetPoint" />
            <Array as="points">
              <mxPoint x="-114" y="412" />
              <mxPoint x="-114" y="258" />
              <mxPoint x="-124" y="258" />
              <mxPoint x="-124" y="132" />
            </Array>
          </mxGeometry>
        </mxCell>
        <mxCell id="NZHaks9mhVxnJWasvqss-41" value="Signal Timing Adjustment" style="rounded=1;whiteSpace=wrap;html=1;" parent="2" vertex="1">
          <mxGeometry x="55" y="382" width="120" height="60" as="geometry" />
        </mxCell>
        <mxCell id="CP8weXbP0PIr7haLrjP9-14" style="edgeStyle=orthogonalEdgeStyle;rounded=0;orthogonalLoop=1;jettySize=auto;html=1;exitX=1;exitY=0.5;exitDx=0;exitDy=0;entryX=0;entryY=0.5;entryDx=0;entryDy=0;" parent="2" source="CP8weXbP0PIr7haLrjP9-12" target="7" edge="1">
          <mxGeometry relative="1" as="geometry" />
        </mxCell>
        <mxCell id="CP8weXbP0PIr7haLrjP9-12" value="" style="rhombus;whiteSpace=wrap;html=1;" parent="2" vertex="1">
          <mxGeometry x="50" y="122" width="80" height="30" as="geometry" />
        </mxCell>
        <mxCell id="CP8weXbP0PIr7haLrjP9-15" style="edgeStyle=orthogonalEdgeStyle;rounded=0;orthogonalLoop=1;jettySize=auto;html=1;entryX=0.45;entryY=0.04;entryDx=0;entryDy=0;entryPerimeter=0;" parent="2" source="7" target="8" edge="1">
          <mxGeometry relative="1" as="geometry">
            <Array as="points">
              <mxPoint x="235" y="170" />
              <mxPoint x="110" y="170" />
            </Array>
          </mxGeometry>
        </mxCell>
      </root>
    </mxGraphModel>
  </diagram>
</mxfile>
